HIERARCHY
ROOT Pelvis
{
	OFFSET 0.000000 0.941512 0.000000
	CHANNELS 6 Xposition Yposition Zposition Zrotation Yrotation Xrotation 
	JOINT Pelvis_L_Hip
	{
		OFFSET 0.000000 0.000000 0.000000
		CHANNELS 3 Zrotation Yrotation Xrotation
		JOINT L_Hip
		{
			OFFSET 0.062321 -0.080322 -0.016990
			CHANNELS 3 Zrotation Yrotation Xrotation
			JOINT L_Knee
			{
				OFFSET 0.093051 -0.381305 -0.029784
				CHANNELS 3 Zrotation Yrotation Xrotation
				JOINT L_Ankle
				{
					OFFSET -0.010371 -0.431000 -0.033614
					CHANNELS 3 Zrotation Yrotation Xrotation
					End Site #name: L_Foot
					{
						OFFSET 0.069299 -0.038670 0.119418
					}
				}
			}
		}
	}
	JOINT Pelvis_R_Hip
	{
		OFFSET 0.000000 0.000000 0.000000
		CHANNELS 3 Zrotation Yrotation Xrotation
		JOINT R_Hip
		{
			OFFSET -0.055334 -0.094904 -0.002373
			CHANNELS 3 Zrotation Yrotation Xrotation
			JOINT R_Knee
			{
				OFFSET -0.064207 -0.384370 -0.019592
				CHANNELS 3 Zrotation Yrotation Xrotation
				JOINT R_Ankle
				{
					OFFSET 0.025418 -0.419734 -0.065953
					CHANNELS 3 Zrotation Yrotation Xrotation
					End Site #name: R_Foot
					{
						OFFSET -0.057233 -0.039888 0.132134
					}
				}
			}
		}
	}
	JOINT Pelvis_Spine1
	{
		OFFSET 0.000000 0.000000 0.000000
		CHANNELS 3 Zrotation Yrotation Xrotation
		JOINT Spine1
		{
			OFFSET -0.005562 0.124093 -0.043360
			CHANNELS 3 Zrotation Yrotation Xrotation
			JOINT Spine2
			{
				OFFSET 0.012244 0.139499 0.029894
				CHANNELS 3 Zrotation Yrotation Xrotation
				JOINT Spine3
				{
					OFFSET -0.002556 0.056561 0.009225
					CHANNELS 3 Zrotation Yrotation Xrotation
					JOINT Spine3_Neck
					{
						OFFSET 0.000000 0.000000 0.000000
						CHANNELS 3 Zrotation Yrotation Xrotation
						JOINT Neck
						{
							OFFSET -0.005205 0.217920 -0.024551
							CHANNELS 3 Zrotation Yrotation Xrotation
							End Site #name: Head
							{
								OFFSET 0.002365 0.091850 0.046637
							}
						}
					}
					JOINT Spine3_L_Collar
					{
						OFFSET 0.000000 0.000000 0.000000
						CHANNELS 3 Zrotation Yrotation Xrotation
						JOINT L_Collar
						{
							OFFSET 0.072225 0.116603 -0.009480
							CHANNELS 3 Zrotation Yrotation Xrotation
							JOINT L_Shoulder
							{
								OFFSET 0.115937 -0.058643 -0.021018
								CHANNELS 3 Zrotation Yrotation Xrotation
								JOINT L_Elbow
								{
									OFFSET 0.021994 -0.254722 -0.024492
									CHANNELS 3 Zrotation Yrotation Xrotation
									End Site #name: L_Wrist
									{
										OFFSET 0.048810 -0.240214 0.103329
									}
								}
							}
						}
					}
					JOINT Spine3_R_Collar
					{
						OFFSET 0.000000 0.000000 0.000000
						CHANNELS 3 Zrotation Yrotation Xrotation
						JOINT R_Collar
						{
							OFFSET -0.073372 0.120704 -0.024611
							CHANNELS 3 Zrotation Yrotation Xrotation
							JOINT R_Shoulder
							{
								OFFSET -0.108089 -0.054969 -0.020504
								CHANNELS 3 Zrotation Yrotation Xrotation
								JOINT R_Elbow
								{
									OFFSET -0.033684 -0.260739 0.009889
									CHANNELS 3 Zrotation Yrotation Xrotation
									End Site #name: R_Wrist
									{
										OFFSET -0.067980 -0.232763 0.118463
									}
								}
							}
						}
					}
				}
			}
		}
	}
}
MOTION
Frames: 5
Frame Time: 0.041667
0.000000 0.966380 0.000000 -5.452873 -5.281493 0.825511 0.000000 0.000000 0.000000 2.466329 0.212842 1.758300 4.466677 -0.436230 1.075036 -4.177546 -4.920929 4.465631 0.000000 0.000000 0.000000 2.516913 -0.226053 0.436657 0.314919 0.044024 1.508309 4.977946 -0.943153 11.245226 0.000000 0.000000 0.000000 6.062092 -0.701053 -4.432477 -2.594706 0.820320 5.720266 1.641890 2.841380 5.305220 0.000000 0.000000 0.000000 -8.682886 5.754632 15.033716 0.000000 0.000000 0.000000 16.103457 -0.369002 2.802579 -23.202901 2.398617 -0.438655 -0.789997 -2.448015 -9.619698 0.000000 0.000000 0.000000 -23.206584 10.539184 -3.306395 24.798631 -3.452385 11.774321 2.818957 5.003757 -10.435558 
0.000452 0.966766 -0.000538 -5.621761 -5.076824 0.824090 0.000000 0.000000 0.000000 2.688475 0.162138 1.624293 4.346143 -0.435345 1.251437 -4.140828 -5.094818 4.296824 0.000000 0.000000 0.000000 2.639685 -0.252634 0.539057 0.453693 0.012074 1.362123 5.016363 -1.100382 11.483423 0.000000 0.000000 0.000000 5.461255 -0.643258 -4.071093 -2.356924 0.853756 6.897470 1.756340 2.990943 4.657468 0.000000 0.000000 0.000000 -8.869940 5.831142 14.883850 0.000000 0.000000 0.000000 15.688433 -1.420748 2.027641 -20.389299 2.005421 -0.659966 -0.577287 -2.342167 -9.672762 0.000000 0.000000 0.000000 -22.555327 11.496639 -4.208262 22.262017 -3.196659 11.708440 2.864764 5.345211 -11.304431 
0.001324 0.966682 -0.002538 -5.794620 -5.135960 0.954493 0.000000 0.000000 0.000000 2.827849 0.075580 1.289309 4.300713 -0.443112 1.441788 -4.053120 -4.962746 4.227840 0.000000 0.000000 0.000000 2.779601 -0.189039 0.157338 0.494683 0.016683 1.550076 4.981452 -1.213454 11.496983 0.000000 0.000000 0.000000 5.003167 -0.686681 -3.120184 -2.492968 0.903397 7.153598 1.960372 3.314983 4.264765 0.000000 0.000000 0.000000 -9.051954 5.913437 14.735891 0.000000 0.000000 0.000000 16.037868 -2.800825 1.160885 -18.139750 1.566140 -1.415695 0.228002 -1.794935 -9.145989 0.000000 0.000000 0.000000 -23.249678 13.520938 -5.884753 21.066745 -2.856568 10.989904 2.877121 5.373348 -11.356068 
0.002436 0.966914 -0.006207 -5.913370 -5.323284 1.234812 0.000000 0.000000 0.000000 2.849731 -0.060863 0.680360 4.310690 -0.458451 1.665989 -3.933101 -4.622826 4.228591 0.000000 0.000000 0.000000 2.865726 -0.057113 -0.564656 0.492029 0.030142 1.761922 5.016600 -1.334929 11.643921 0.000000 0.000000 0.000000 4.475453 -0.777624 -1.623286 -2.889688 0.956435 6.667806 2.308255 3.795769 3.967048 0.000000 0.000000 0.000000 -9.231779 5.982063 14.468420 0.000000 0.000000 0.000000 16.832984 -4.347054 0.232710 -16.400940 1.033844 -2.930025 1.325046 -0.960645 -7.891239 0.000000 0.000000 0.000000 -24.846439 16.031427 -8.034041 21.427645 -2.410496 9.569222 2.467835 4.797564 -10.497335 
0.003770 0.967386 -0.010947 -6.106823 -5.300245 1.502988 0.000000 0.000000 0.000000 3.017873 -0.238151 -0.066076 4.268609 -0.460717 1.769381 -3.981326 -4.413977 4.428919 0.000000 0.000000 0.000000 3.047245 0.074512 -1.297231 0.523267 0.025847 1.777584 4.986395 -1.624428 11.825676 0.000000 0.000000 0.000000 3.988755 -0.940213 0.536585 -3.466338 0.987231 5.466201 2.757123 4.324821 3.924441 0.000000 0.000000 0.000000 -9.182064 5.809116 13.369702 0.000000 0.000000 0.000000 17.532294 -5.765283 -0.628780 -15.156267 0.381922 -5.393511 2.823311 0.071766 -6.445294 0.000000 0.000000 0.000000 -26.559286 18.428682 -10.276958 22.764052 -1.799134 7.538595 2.084334 4.111688 -9.225085 
